<svg version="1.0" xmlns="http://www.w3.org/2000/svg" width="1024.000000pt" height="768.000000pt" viewBox="0 0 1024.000000 768.000000" preserveAspectRatio="xMidYMid meet"><g transform="translate(0.000000,768.000000) scale(0.100000,-0.100000)" fill="#000000" stroke="none"><path d="M4361 6052 c-60 -23 -130 -89 -166 -154 -27 -48 -30 -62 -30 -143 0
-73 5 -99 23 -136 13 -25 127 -171 255 -324 128 -153 268 -322 312 -375 44
-54 260 -312 480 -575 220 -264 406 -486 412 -496 11 -15 -18 -55 -220 -306
-419 -521 -799 -992 -986 -1222 -187 -231 -218 -279 -230 -360 -38 -258 229
-447 465 -330 59 30 88 62 375 419 350 436 641 797 784 975 413 510 510 636
532 683 34 72 35 176 3 250 -16 38 -250 325 -854 1049 -785 942 -834 998 -889
1027 -74 38 -195 46 -266 18z"/></g></svg>