<?xml version="1.0" standalone="no"?>
<!DOCTYPE svg PUBLIC "-//W3C//DTD SVG 20010904//EN"
 "http://www.w3.org/TR/2001/REC-SVG-20010904/DTD/svg10.dtd">
<svg version="1.0" xmlns="http://www.w3.org/2000/svg"
 width="1600.000000pt" height="1600.000000pt" viewBox="0 0 1600.000000 1600.000000"
 preserveAspectRatio="xMidYMid meet">

<g transform="translate(0.000000,1600.000000) scale(0.100000,-0.100000)"
fill="#000000" stroke="none">
<path d="M7695 15359 c-1587 -43 -3169 -641 -4401 -1664 -263 -219 -545 -489
-768 -735 -1043 -1151 -1691 -2597 -1850 -4130 -38 -359 -49 -902 -26 -1235
90 -1306 498 -2508 1216 -3582 1108 -1656 2838 -2790 4789 -3138 431 -77 803
-108 1275 -109 470 0 801 27 1229 100 1715 291 3266 1186 4387 2530 740 888
1259 1938 1514 3063 121 535 174 1025 174 1606 0 727 -88 1350 -287 2040 -814
2813 -3291 4896 -6199 5214 -355 39 -654 50 -1053 40z m1320 -3834 c171 -75
242 -283 150 -440 -13 -22 -692 -708 -1509 -1525 -817 -817 -1486 -1489 -1486
-1495 0 -6 666 -676 1481 -1490 814 -814 1492 -1497 1505 -1518 77 -118 62
-273 -37 -381 -65 -72 -129 -100 -229 -100 -151 -1 0 -141 -1816 1677 -1316
1316 -1626 1631 -1645 1672 -20 41 -24 66 -24 140 0 78 4 97 27 140 20 38 433
456 1660 1681 1531 1530 1636 1633 1683 1647 94 30 161 28 240 -8z"/>
</g>
</svg>
